<svg id="Layer_1" xmlns="http://www.w3.org/2000/svg" viewBox="0 0 1920 1080"><style>.st0{fill:#26303d}</style><path class="st0" d="M854.4 670.7c-35.4-20.4-70.6-40.9-106-61.1-4.8-2.7-6.5-5.6-6.5-11.1.3-39 .2-78 .1-117 0-3.5.8-5.6 4.1-7.5 34.8-19.9 69.5-40 104.2-60.1 2.8-1.7 5-2 8.1-.2 34.6 20.2 69.4 40.2 104.2 60.1 3.3 1.9 4.5 3.9 4.4 7.7-.2 40-.1 80-.2 120 0 1.8-.8 4.6-2.1 5.3-36.7 21.5-73.5 42.6-110.3 63.9zM973.5 615.4c36.6 21.1 73.3 42.2 109.8 63.5 1.3.8 2.5 3 2.5 4.6.1 41 .1 82 0 123 0 1.5-1.3 3.7-2.6 4.5-35.5 20.7-71.1 41.2-106.8 61.6-1.5.8-4.3.9-5.7 0-35.7-20.4-71.3-41-106.8-61.7-1.4-.8-2.7-3.3-2.7-5-.1-40.8-.1-81.6 0-122.5 0-1.6 1.2-3.9 2.5-4.6 36.5-21.2 73.1-42.3 109.8-63.4zM972.3 465.8c-29-16.7-58.1-33.5-87.1-50.3-7.4-4.3-14.9-8.5-22.2-13-1.4-.9-2.8-3.2-2.8-4.9-.2-40.6-.2-81.3 0-121.9 0-1.8 1.4-4.4 3-5.3 35.1-20.5 70.4-40.7 105.5-61.2 2.8-1.6 4.7-1.5 7.5.1 34.7 20.2 69.5 40.3 104.3 60.3 2.9 1.7 4.2 3.3 4.2 6.9-.1 40.1-.1 80.3 0 120.4 0 3-.8 4.7-3.5 6.2-36.4 20.8-72.6 41.7-108.9 62.7z"/><path d="M980 541c0-19.8 0-39.7-.1-59.5 0-2.8.7-4.3 3.3-5.7 23.5-13.4 46.8-27 70.2-40.6 11.4-6.6 23-12.9 34.2-19.8 2.9-1.8 4.9-1.3 7.2 0 11.1 6.4 22.2 12.9 33.3 19.3 16.3 9.4 32.5 18.8 48.8 28.2 7.3 4.2 14.7 8.2 21.8 12.7 1.6 1 3 3.6 3 5.4.2 40 .2 80 0 120 0 1.7-1.2 4.2-2.6 5.1-35.1 20.6-70.3 41-105.6 61.3-1.3.7-3.8.4-5.3-.4-14.1-7.9-28-16-42-24.1-16.1-9.3-32.2-18.6-48.4-27.9-5.3-3-10.8-5.8-15.8-9.1-1.3-.9-2.1-3.5-2.1-5.4 0-19.8.1-39.7.1-59.5z" fill="#fecb63"/><path d="M1101.1 746.8v-41.5c50-3.3 90.8-24.9 121.6-64.1 24.1-30.7 35.2-66.4 34.2-105.4-2-78.7-62.5-153.4-156-160.2v-38.4c0-1 .2-1.9.3-2.9 5.5.3 10.8.5 16.1.8 3.1.2 4.5-.9 4.7-4.2.7-14.3 4.5-27.7 14.1-40.4 13.2 3.7 27.3 7.6 41.3 11.7 1 .3 1.9 2.4 2 3.7.9 13.2-2.1 25.6-8.3 37.2-1.9 3.6-1.3 6 2.7 7.8 14.9 6.4 28.8 14.7 41.9 24.1 2.8 2 5.1 2 7.1-1.1 1.4-2.1 3.2-3.8 4.5-6 6.2-10.5 16.7-15.7 28.4-23 10.3 10.5 21 21.3 31.4 31.8-6.9 13.4-14.6 24-26.5 31.3-6.2 3.8-5.6 4.2-1.9 10.5 7.6 12.9 15 25.9 22.3 39 3 5.4 3.6 6.1 9.2 3.3 12.3-6.1 25.2-8.8 40-7.7 3.9 14.4 7.8 29.2 11.7 43.6-12.3 7.9-24.1 13.1-37.9 13.3-7.1.1-7.5 1.5-6.7 8.4 1.8 14.6 1.8 29.2 0 43.8-.8 7-.3 8.3 6.5 8.5 12.8.3 24.2 4.6 34.8 11.4 1.3.8 2.4 3.6 2.1 5.1-3.3 13.6-6.9 27.1-10.3 40.2-14.2 1.6-26.8-1-38.8-6.9-7-3.5-7.2-2.8-10.9 3.8-7.3 13-14.8 26-22.6 38.7-2.3 3.8-3 6.2 1.4 8.9 11.9 7.4 20.9 17.7 27.7 32.8-10 9.9-20.8 20.7-31.2 30.9-13.7-7.3-24.3-14.9-31.6-26.6-3.7-6-4.8-5.9-10.7-1.8-12.5 8.9-25.7 16.4-39.7 22.6-4.2 1.8-5 4.3-3 8.2 1.1 2.1 1.7 4.3 2.9 6.3 5.9 9.8 4.9 20.7 5.5 31.4.1.9-1 2.6-1.9 2.9-13.5 3.8-27 7.5-40.5 10.9-.9.2-2.6-1.4-3.4-2.5-7.5-10.9-10.9-23.3-11.5-36.4-.2-4.1-1.9-5.1-5.6-4.8-4.9.6-9.9.7-15.4 1z" fill="#27303d"/></svg>